<svg width="25" height="24" viewBox="0 0 25 24" fill="none" xmlns="http://www.w3.org/2000/svg">
<path d="M5.05792 22.75C4.63432 22.75 4.24097 22.65 3.88797 22.45C3.11137 22 2.6676 21.09 2.6676 19.96V5.86C2.6676 3.32 4.75535 1.25 7.31712 1.25H17.0498C19.6116 1.25 21.6993 3.32 21.6993 5.86V19.95C21.6993 21.08 21.2556 21.99 20.479 22.44C19.7024 22.89 18.6837 22.84 17.6852 22.29L12.7634 19.58C12.4709 19.42 11.896 19.42 11.6035 19.58L6.68172 22.29C6.13709 22.59 5.58237 22.75 5.05792 22.75ZM7.3272 2.75C5.60255 2.75 4.19055 4.15 4.19055 5.86V19.95C4.19055 20.54 4.362 20.98 4.66457 21.15C4.96715 21.33 5.44117 21.27 5.95555 20.98L10.8774 18.27C11.6237 17.86 12.7533 17.86 13.4997 18.27L18.4215 20.98C18.9359 21.27 19.4099 21.33 19.7125 21.15C20.015 20.97 20.1865 20.53 20.1865 19.95V5.86C20.1865 4.15 18.7745 2.75 17.0498 2.75H7.3272Z" fill="#295BAC"/>
</svg>
