<svg width="24" height="24" viewBox="0 0 24 24" fill="none" xmlns="http://www.w3.org/2000/svg">
<path d="M18.63 7.15C18.67 7.76 18.62 8.45 18.5 9.22L17.77 13.91C17.15 17.82 15.34 19.14 11.43 18.53L6.73999 17.79C5.38999 17.58 4.34999 17.22 3.58999 16.68C2.13999 15.67 1.71999 14.01 2.11999 11.45L2.85999 6.76C3.47999 2.85 5.28999 1.53 9.19999 2.14L13.89 2.88C17.03 3.37 18.5 4.65 18.63 7.15Z" stroke="#295BAC" stroke-width="1.5" stroke-linecap="round" stroke-linejoin="round"/>
<path d="M8.24 8.98C9.20098 8.98 9.98 8.20098 9.98 7.24C9.98 6.27902 9.20098 5.5 8.24 5.5C7.27902 5.5 6.5 6.27902 6.5 7.24C6.5 8.20098 7.27902 8.98 8.24 8.98Z" stroke="#295BAC" stroke-width="1.5" stroke-linecap="round" stroke-linejoin="round"/>
</svg>
