<svg width="24" height="27" viewBox="0 0 24 27" fill="none" xmlns="http://www.w3.org/2000/svg">
<path d="M11.9688 18.8125C15.7139 18.8125 18.75 15.7764 18.75 12.0312C18.75 8.28607 15.7139 5.25 11.9688 5.25C8.22357 5.25 5.1875 8.28607 5.1875 12.0312C5.1875 15.7764 8.22357 18.8125 11.9688 18.8125Z" stroke="#295BAC" stroke-width="1.5" stroke-linecap="round" stroke-linejoin="round"/>
<path d="M21.8125 2.1875L17 7" stroke="#295BAC" stroke-width="1.5" stroke-linecap="round" stroke-linejoin="round"/>
<path d="M16.125 2.1875H21.8125V7.875" stroke="#295BAC" stroke-width="1.5" stroke-linecap="round" stroke-linejoin="round"/>
<path d="M12 19.0001C15.866 19.0001 19 15.8661 19 12.0001C19 8.1341 15.866 5.00009 12 5.00009C8.13401 5.00009 5 8.1341 5 12.0001C5 15.8661 8.13401 19.0001 12 19.0001Z" stroke="#295BAC" stroke-width="1.5" stroke-linecap="round" stroke-linejoin="round"/>
<path d="M12 19.0001V25.0001" stroke="#295BAC" stroke-width="1.5" stroke-linecap="round" stroke-linejoin="round"/>
<path d="M15 22.0001H9" stroke="#295BAC" stroke-width="1.5" stroke-linecap="round" stroke-linejoin="round"/>
</svg>
