<svg width="64" height="64" viewBox="0 0 64 64" fill="none" xmlns="http://www.w3.org/2000/svg">
<path d="M32.0533 7.76001C23.2267 7.76001 16.0533 14.9333 16.0533 23.76V31.4667C16.0533 33.0933 15.36 35.5733 14.5333 36.96L11.4667 42.0533C9.57332 45.2 10.88 48.6933 14.3467 49.8667C25.84 53.7067 38.24 53.7067 49.7333 49.8667C52.96 48.8 54.3733 44.9867 52.6133 42.0533L49.5467 36.96C48.7467 35.5733 48.0533 33.0933 48.0533 31.4667V23.76C48.0533 14.96 40.8533 7.76001 32.0533 7.76001Z" stroke="#295BAC" stroke-width="1.5" stroke-miterlimit="10" stroke-linecap="round"/>
<path d="M36.9868 8.53334C36.1601 8.29334 35.3068 8.10667 34.4268 8.00001C31.8668 7.68001 29.4135 7.86667 27.1201 8.53334C27.8935 6.56001 29.8135 5.17334 32.0535 5.17334C34.2935 5.17334 36.2135 6.56001 36.9868 8.53334Z" stroke="#295BAC" stroke-width="1.5" stroke-miterlimit="10" stroke-linecap="round" stroke-linejoin="round"/>
<path d="M40.0532 50.8267C40.0532 55.2267 36.4532 58.8267 32.0532 58.8267C29.8666 58.8267 27.8399 57.92 26.3999 56.48C24.9599 55.04 24.0532 53.0133 24.0532 50.8267" stroke="#295BAC" stroke-width="1.5" stroke-miterlimit="10"/>
</svg>
