<svg width="24" height="24" viewBox="0 0 24 24" fill="none" xmlns="http://www.w3.org/2000/svg">
<path d="M20 19.26H10.93C10.48 19.26 10.11 18.89 10.11 18.44C10.11 17.99 10.48 17.62 10.93 17.62H20C20.45 17.62 20.82 17.99 20.82 18.44C20.82 18.9 20.45 19.26 20 19.26Z" fill="#295BAC"/>
<path d="M20 12.97H10.93C10.48 12.97 10.11 12.6 10.11 12.15C10.11 11.7 10.48 11.33 10.93 11.33H20C20.45 11.33 20.82 11.7 20.82 12.15C20.82 12.6 20.45 12.97 20 12.97Z" fill="#295BAC"/>
<path d="M20 6.67H10.93C10.48 6.67 10.11 6.3 10.11 5.85C10.11 5.4 10.48 5.03 10.93 5.03H20C20.45 5.03 20.82 5.4 20.82 5.85C20.82 6.3 20.45 6.67 20 6.67Z" fill="#295BAC"/>
<path d="M4.91005 8.03001C4.69005 8.03001 4.48005 7.94001 4.33005 7.79001L3.42005 6.88001C3.10005 6.56001 3.10005 6.04001 3.42005 5.72001C3.74005 5.40001 4.26005 5.40001 4.58005 5.72001L4.91005 6.05001L7.05005 3.91001C7.37005 3.59001 7.89005 3.59001 8.21005 3.91001C8.53005 4.23001 8.53005 4.75001 8.21005 5.07001L5.49005 7.79001C5.33005 7.94001 5.13005 8.03001 4.91005 8.03001Z" fill="#295BAC"/>
<path d="M4.91005 14.33C4.70005 14.33 4.49005 14.25 4.33005 14.09L3.42005 13.18C3.10005 12.86 3.10005 12.34 3.42005 12.02C3.74005 11.7 4.26005 11.7 4.58005 12.02L4.91005 12.35L7.05005 10.21C7.37005 9.89 7.89005 9.89 8.21005 10.21C8.53005 10.53 8.53005 11.05 8.21005 11.37L5.49005 14.09C5.33005 14.25 5.12005 14.33 4.91005 14.33Z" fill="#295BAC"/>
<path d="M4.91005 20.33C4.70005 20.33 4.49005 20.25 4.33005 20.09L3.42005 19.18C3.10005 18.86 3.10005 18.34 3.42005 18.02C3.74005 17.7 4.26005 17.7 4.58005 18.02L4.91005 18.35L7.05005 16.21C7.37005 15.89 7.89005 15.89 8.21005 16.21C8.53005 16.53 8.53005 17.05 8.21005 17.37L5.49005 20.09C5.33005 20.25 5.12005 20.33 4.91005 20.33Z" fill="#295BAC"/>
</svg>
